{
  "extensions": {
    "EXT_structural_metadata": {
      "propertyTables": [
        {
          "class": "buildingComponents",
          "count": 4,
          "name": "Example property table",
          "properties": {
            "component": {
              "stringOffsets": 3,
              "values": 2
            },
            "yearBuilt": {
              "values": 4
            }
          }
        }
      ],
      "schema": {
        "classes": {
          "buildingComponents": {
            "name": "Building components",
            "properties": {
              "component": {
                "name": "Component",
                "type": "STRING"
              },
              "yearBuilt": {
                "componentType": "INT16",
                "name": "Year built",
                "type": "SCALAR"
              }
            }
          }
        },
        "id": "FeatureIdTextureAndPropertyTableSchema"
      }
    }
  },
  "asset": {
    "copyright": "",
    "generator": "SharpGLTF 1.0.0\u002B965d2a0ba4e512a78df2facc5a5273ebaaac1f0a",
    "version": "2.0"
  },
  "extensionsUsed": [
    "EXT_structural_metadata",
    "KHR_materials_specular",
    "EXT_mesh_features"
  ],
  "accessors": [
    {
      "name": "POSITION",
      "bufferView": 0,
      "componentType": 5126,
      "count": 4,
      "max": [
        1,
        1,
        0
      ],
      "min": [
        0,
        0,
        0
      ],
      "type": "VEC3"
    },
    {
      "name": "TEXCOORD_0",
      "bufferView": 0,
      "byteOffset": 12,
      "componentType": 5126,
      "count": 4,
      "max": [
        1,
        1
      ],
      "min": [
        0,
        0
      ],
      "type": "VEC2"
    },
    {
      "bufferView": 1,
      "componentType": 5123,
      "count": 6,
      "type": "SCALAR"
    }
  ],
  "bufferViews": [
    {
      "buffer": 0,
      "byteLength": 80,
      "byteStride": 20,
      "target": 34962
    },
    {
      "buffer": 0,
      "byteLength": 12,
      "byteOffset": 120,
      "target": 34963
    },
    {
      "buffer": 0,
      "byteLength": 18,
      "byteOffset": 100
    },
    {
      "buffer": 0,
      "byteLength": 20,
      "byteOffset": 80
    },
    {
      "buffer": 0,
      "byteLength": 8,
      "byteOffset": 132
    }
  ],
  "buffers": [
    {
      "byteLength": 140,
      "uri": "FeatureIdTextureAndPropertyTable1.bin"
    }
  ],
  "images": [
    {
      "uri": "FeatureIdTextureAndPropertyTable1_0.png"
    },
    {
      "uri": "FeatureIdTextureAndPropertyTable1_1.png"
    }
  ],
  "materials": [
    {
      "extensions": {
        "KHR_materials_specular": {
          "specularFactor": 0,
          "specularTexture": {
            "index": 1
          }
        }
      },
      "name": "Default",
      "doubleSided": true,
      "pbrMetallicRoughness": {
        "baseColorTexture": {
          "index": 0
        },
        "metallicFactor": 0
      }
    }
  ],
  "meshes": [
    {
      "name": "mesh",
      "primitives": [
        {
          "extensions": {
            "EXT_mesh_features": {
              "featureIds": [
                {
                  "featureCount": 4,
                  "propertyTable": 0,
                  "texture": {
                    "index": 1,
                    "channels": [
                      0
                    ]
                  }
                }
              ]
            }
          },
          "attributes": {
            "POSITION": 0,
            "TEXCOORD_0": 1
          },
          "indices": 2,
          "material": 0
        }
      ]
    }
  ],
  "nodes": [
    {
      "mesh": 0
    }
  ],
  "scene": 0,
  "scenes": [
    {
      "nodes": [
        0
      ]
    }
  ],
  "textures": [
    {
      "source": 0
    },
    {
      "source": 1
    }
  ]
}