{
  "asset": {
    "copyright": "",
    "generator": "SharpGLTF 1.0.0-alpha0026+f31e8d4c1c1510c855df83b60d649e7e49e1c22b",
    "version": "2.0"
  },
  "accessors": [
    {
      "name": "POSITION",
      "bufferView": 0,
      "componentType": 5126,
      "count": 450922,
      "max": [
        6813.59375,
        4585.98876953125,
        6077.6982421875
      ],
      "min": [
        -6813.59375,
        -4585.98876953125,
        -5980.24853515625
      ],
      "type": "VEC3"
    },
    {
      "name": "NORMAL",
      "bufferView": 0,
      "byteOffset": 12,
      "componentType": 5126,
      "count": 450922,
      "max": [
        0.9812189340591431,
        0.75163733959198,
        0.7761056423187256
      ],
      "min": [
        -0.9812191724777222,
        -0.6611026525497437,
        -0.776116132736206
      ],
      "type": "VEC3"
    },
    {
      "name": "_BATCHID",
      "bufferView": 0,
      "byteOffset": 24,
      "componentType": 5126,
      "count": 450922,
      "max": [
        0
      ],
      "min": [
        0
      ],
      "type": "SCALAR"
    },
    {
      "bufferView": 1,
      "componentType": 5125,
      "count": 464760,
      "type": "SCALAR"
    },
    {
      "name": "Animation.Input",
      "bufferView": 2,
      "componentType": 5125,
      "count": 619680,
      "type": "SCALAR"
    }
  ],
  "bufferViews": [
    {
      "buffer": 0,
      "byteLength": 12625816,
      "byteStride": 28,
      "target": 34962
    },
    {
      "buffer": 0,
      "byteLength": 1859040,
      "byteOffset": 15104536,
      "target": 34963
    },
    {
      "buffer": 0,
      "byteLength": 2478720,
      "byteOffset": 12625816
    }
  ],
  "buffers": [
    {
      "byteLength": 16963576,
      "uri": "test11.bin"
    }
  ],
  "materials": [
    {
      "doubleSided": true,
      "pbrMetallicRoughness": {
        "metallicFactor": 0,
        "roughnessFactor": 0
      }
    }
  ],
  "meshes": [
    {
      "name": "mesh",
      "primitives": [
        {
          "attributes": {
            "POSITION": 0,
            "NORMAL": 1,
            "_BATCHID": 2
          },
          "indices": 3,
          "material": 0,
          "extensions": {
            "CESIUM_primitive_outline": {
              "indices": 4
            }
          }
        }
      ]
    }
  ],
  "nodes": [
    {
      "matrix": [
        1,
        0,
        0,
        0,
        0,
        0,
        -1,
        0,
        0,
        1,
        0,
        0,
        0,
        0,
        0,
        1
      ],
      "mesh": 0
    }
  ],
  "scene": 0,
  "scenes": [
    {
      "nodes": [
        0
      ]
    }
  ],
  "extensionsUsed": [
    "CESIUM_primitive_outline"
  ]
}