{
  "asset": {
    "generator": "SharpGLTF 1.0.0-alpha0020",
    "version": "2.0"
  },
  "accessors": [
    {
      "name": "POSITION",
      "bufferView": 0,
      "componentType": 5126,
      "count": 18986,
      "max": [
        -3398.697998046875,
        155.99832153320312,
        818.3347778320312
      ],
      "min": [
        -4417.068359375,
        -1070.934326171875,
        -9.70029067993164
      ],
      "type": "VEC3"
    },
    {
      "name": "NORMAL",
      "bufferView": 0,
      "byteOffset": 12,
      "componentType": 5126,
      "count": 18986,
      "max": [
        0.9811403751373291,
        0.7754675149917603,
        0.9807120561599731
      ],
      "min": [
        -0.9811409115791321,
        -0.7754842638969421,
        -0.7512180805206299
      ],
      "type": "VEC3"
    },
    {
      "name": "_BATCHID",
      "bufferView": 0,
      "byteOffset": 24,
      "componentType": 5126,
      "count": 18986,
      "max": [
        0
      ],
      "min": [
        0
      ],
      "type": "SCALAR"
    },
    {
      "bufferView": 1,
      "componentType": 5123,
      "count": 19572,
      "type": "SCALAR"
    }
  ],
  "bufferViews": [
    {
      "buffer": 0,
      "byteLength": 531608,
      "byteStride": 28,
      "target": 34962,
      "byteOffset": 0
    },
    {
      "buffer": 0,
      "byteLength": 39144,
      "byteOffset": 531608,
      "target": 34963
    }
  ],
  "buffers": [
    {
      "uri": "test_2_0_1_data.bin",
      "byteLength": 570752
    }
  ],
  "materials": [
    {
      "alphaMode": "BLEND",
      "doubleSided": true,
      "pbrMetallicRoughness": {
        "baseColorFactor": [
          0.8509804,
          0.30980393,
          0.2,
          1
        ]
      }
    }
  ],
  "meshes": [
    {
      "name": "mesh",
      "primitives": [
        {
          "attributes": {
            "POSITION": 0,
            "NORMAL": 1,
            "_BATCHID": 2
          },
          "indices": 3,
          "material": 0
        }
      ]
    }
  ],
  "nodes": [
    {
      "mesh": 0
    }
  ],
  "scene": 0,
  "scenes": [
    {
      "nodes": [
        0
      ]
    }
  ]
}