{
  "extensions": {
    "EXT_structural_metadata": {
      "propertyTables": [
        {
          "class": "exampleMetadataClass",
          "count": 2,
          "name": "Example property table",
          "properties": {
            "example_VEC3_FLOAT32": {
              "values": 2
            },
            "example_STRING": {
              "stringOffsets": 4,
              "values": 3
            }
          }
        }
      ],
      "schema": {
        "classes": {
          "exampleMetadataClass": {
            "description": "An example metadata class",
            "name": "Example metadata class",
            "properties": {
              "example_VEC3_FLOAT32": {
                "componentType": "FLOAT32",
                "description": "An example property, with type VEC3, with component type FLOAT32",
                "name": "Example VEC3 FLOAT32 property",
                "type": "VEC3"
              },
              "example_STRING": {
                "description": "An example property, with type STRING",
                "name": "Example STRING property",
                "type": "STRING"
              }
            }
          }
        },
        "id": "MultipleFeatureIdsAndPropertiesSchema"
      }
    }
  },
  "asset": {
    "copyright": "",
    "generator": "SharpGLTF 1.0.0\u002B98363a640e4e1abf8bb5c94db29f379e2a4d6a98",
    "version": "2.0"
  },
  "extensionsUsed": [
    "EXT_structural_metadata",
    "EXT_mesh_features"
  ],
  "accessors": [
    {
      "name": "POSITION",
      "bufferView": 0,
      "componentType": 5126,
      "count": 6,
      "max": [
        1,
        1,
        0
      ],
      "min": [
        0,
        0,
        0
      ],
      "type": "VEC3"
    },
    {
      "name": "_FEATURE_ID_0",
      "bufferView": 0,
      "byteOffset": 12,
      "componentType": 5126,
      "count": 6,
      "max": [
        1
      ],
      "min": [
        0
      ],
      "type": "SCALAR"
    },
    {
      "name": "_FEATURE_ID_1",
      "bufferView": 0,
      "byteOffset": 16,
      "componentType": 5126,
      "count": 6,
      "max": [
        1
      ],
      "min": [
        0
      ],
      "type": "SCALAR"
    },
    {
      "bufferView": 1,
      "componentType": 5123,
      "count": 6,
      "type": "SCALAR"
    }
  ],
  "bufferViews": [
    {
      "buffer": 0,
      "byteLength": 120,
      "byteStride": 20,
      "target": 34962
    },
    {
      "buffer": 0,
      "byteLength": 12,
      "byteOffset": 164,
      "target": 34963
    },
    {
      "buffer": 0,
      "byteLength": 24,
      "byteOffset": 120
    },
    {
      "buffer": 0,
      "byteLength": 20,
      "byteOffset": 144
    },
    {
      "buffer": 0,
      "byteLength": 12,
      "byteOffset": 176
    }
  ],
  "buffers": [
    {
      "byteLength": 188,
      "uri": "MultipleFeatureIdsAndProperties1.bin"
    }
  ],
  "materials": [
    {
      "name": "Default",
      "doubleSided": true,
      "pbrMetallicRoughness": {}
    }
  ],
  "meshes": [
    {
      "name": "mesh",
      "primitives": [
        {
          "extensions": {
            "EXT_mesh_features": {
              "featureIds": [
                {
                  "attribute": 0,
                  "featureCount": 2,
                  "propertyTable": 0
                },
                {
                  "attribute": 1,
                  "featureCount": 2,
                  "propertyTable": 0
                }
              ]
            }
          },
          "attributes": {
            "POSITION": 0,
            "_FEATURE_ID_0": 1,
            "_FEATURE_ID_1": 2
          },
          "indices": 3,
          "material": 0
        }
      ]
    }
  ],
  "nodes": [
    {
      "mesh": 0
    }
  ],
  "scene": 0,
  "scenes": [
    {
      "nodes": [
        0
      ]
    }
  ]
}